<svg width="16" height="16" viewBox="0 0 16 16" fill="none" xmlns="http://www.w3.org/2000/svg">
<path fill-rule="evenodd" clip-rule="evenodd" d="M2 1C1.44772 1 1 1.44772 1 2V14C1 14.5523 1.44772 15 2 15H14C14.5523 15 15 14.5523 15 14V2C15 1.44772 14.5523 1 14 1H2ZM14 2H2V13H14V2Z" fill="#808080"/>
<path d="M8 2.5L3 4.96098V10.039L8 12.5L13 10.039V4.96098L8 2.5ZM8 3.98713L10.8143 5.37301L8 6.75679L5.18643 5.37301L8 3.98713ZM4.42857 6.48537L7.28571 7.89165V10.6627L4.42857 9.25503V6.48537ZM11.5714 6.48537V9.25503L8.71429 10.6627V7.89165L11.5714 6.48537Z" fill="#FC7F7F"/>
</svg>
